HIERARCHY
ROOT SpineBase
{
  OFFSET 0.000000 0.000000 0.000000
  CHANNELS 6 Xposition Yposition Zposition Zrotation Xrotation Yrotation
  JOINT SpineMid
  {
    OFFSET 0.000000 27.466481 0.000000
    CHANNELS 3 Zrotation Xrotation Yrotation
    JOINT SpineShoulder
    {
      OFFSET 0.071964 20.457993 -0.701477
      CHANNELS 3 Zrotation Xrotation Yrotation
      JOINT Neck
      {
        OFFSET 0.031313 6.787224 -0.531945
        CHANNELS 3 Zrotation Xrotation Yrotation
        JOINT Head
        {
          OFFSET 2.101629 12.892632 -0.534235
          CHANNELS 3 Zrotation Xrotation Yrotation
          End Site
          {
            OFFSET 0 0 0
          }
        }
      }
      JOINT ShoulderLeft
      {
        OFFSET -12.695761 -1.702378 -8.470219
        CHANNELS 3 Zrotation Xrotation Yrotation
        JOINT ElbowLeft
        {
          OFFSET -1.795956 -19.527710 -4.790436
          CHANNELS 3 Zrotation Xrotation Yrotation
          JOINT WristLeft
          {
            OFFSET 8.212053 -17.119363 -2.554265
            CHANNELS 3 Zrotation Xrotation Yrotation
            JOINT HandLeft
            {
              OFFSET 3.705866 -5.045861 2.532750
              CHANNELS 3 Zrotation Xrotation Yrotation
              JOINT HandTipLeft
              {
                OFFSET 4.782349 -6.491429 -1.675158
                CHANNELS 3 Zrotation Xrotation Yrotation
                End Site
                {
                  OFFSET 0 0 0
                }
              }
              JOINT ThumbLeft
              {
                OFFSET -5.991248 -2.753301 -0.093294
                CHANNELS 3 Zrotation Xrotation Yrotation
                End Site
                {
                  OFFSET 0 0 0
                }
              }
            }
          }
        }
      }
      JOINT ShoulderRight
      {
        OFFSET 14.347705 -3.375371 8.853305
        CHANNELS 3 Zrotation Xrotation Yrotation
        JOINT ElbowRight
        {
          OFFSET 3.263552 -25.563209 0.783256
          CHANNELS 3 Zrotation Xrotation Yrotation
          JOINT WristRight
          {
            OFFSET 2.384147 -18.412324 -5.028034
            CHANNELS 3 Zrotation Xrotation Yrotation
            JOINT HandRight
            {
              OFFSET 0.499778 -2.009466 -1.180242
              CHANNELS 3 Zrotation Xrotation Yrotation
              JOINT HandTipRight
              {
                OFFSET 1.049798 -2.038916 -3.371422
                CHANNELS 3 Zrotation Xrotation Yrotation
                End Site
                {
                  OFFSET 0 0 0
                }
              }
              JOINT ThumbRight
              {
                OFFSET -2.095453 -0.623001 -2.007825
                CHANNELS 3 Zrotation Xrotation Yrotation
                End Site
                {
                  OFFSET 0 0 0
                }
              }
            }
          }
        }
      }
    }
  }
  JOINT HipLeft
  {
    OFFSET -5.557440 0.910921 -6.578720
    CHANNELS 3 Zrotation Xrotation Yrotation
    JOINT KneeLeft
    {
      OFFSET -3.116991 -40.184610 5.185250
      CHANNELS 3 Zrotation Xrotation Yrotation
      JOINT AnkleLeft
      {
        OFFSET -6.748610 -28.788211 -0.502976
        CHANNELS 3 Zrotation Xrotation Yrotation
        JOINT FootLeft
        {
          OFFSET 1.130512 -7.103474 -2.835987
          CHANNELS 3 Zrotation Xrotation Yrotation
          End Site
          {
            OFFSET 0 0 0
          }
        }
      }
    }
  }
  JOINT HipRight
  {
    OFFSET 5.371334 0.603440 0.227643
    CHANNELS 3 Zrotation Xrotation Yrotation
    JOINT KneeRight
    {
      OFFSET -2.182597 -41.188491 10.299851
      CHANNELS 3 Zrotation Xrotation Yrotation
      JOINT AnkleRight
      {
        OFFSET 0.551856 -27.827806 2.131695
        CHANNELS 3 Zrotation Xrotation Yrotation
        JOINT FootRight
        {
          OFFSET 4.695372 -6.408707 -1.817973
          CHANNELS 3 Zrotation Xrotation Yrotation
          End Site
          {
            OFFSET 0 0 0
          }
        }
      }
    }
  }
}
MOTION
Frames: 12
Frame Time: 0.033333
10.416462 79.566998 345.070004 -0.000000 0.000000 -31.914356 -0.000000 0.000000 31.914356 -0.000000 0.000000 0.000000 -0.000000 0.000000 0.000000 0.000000 0.000000 0.000000 -0.000000 0.000000 0.000000 -0.000000 0.000000 0.000000 -0.000000 0.000000 0.000000 -0.000000 0.000000 0.000000 0.000000 0.000000 0.000000 0.000000 0.000000 0.000000 -0.000000 0.000000 0.000000 -0.000000 0.000000 0.000000 -0.000000 0.000000 0.000000 -0.000000 0.000000 0.000000 0.000000 0.000000 0.000000 0.000000 0.000000 0.000000 -0.000000 0.000000 31.914356 -0.000000 0.000000 0.000000 -0.000000 0.000000 0.000000 0.000000 0.000000 0.000000 -0.000000 0.000000 31.914356 -0.000000 0.000000 0.000000 -0.000000 0.000000 0.000000 0.000000 0.000000 0.000000
10.486933 79.586877 345.066757 -0.064697 0.063676 -32.126604 0.088652 -0.019520 32.126655 -0.000000 0.000000 0.000000 -0.000000 0.000000 0.000000 0.000000 0.000000 0.000000 -0.000000 0.000000 0.000000 -0.000000 0.000000 0.000000 1.054592 -0.648608 0.058405 -0.451943 2.003265 0.776541 0.000000 0.000000 0.000000 0.000000 0.000000 0.000000 -0.000000 0.000000 0.000000 -0.149270 0.806559 0.145997 1.145334 0.816851 -0.321533 2.050773 -2.690159 -5.297962 0.000000 0.000000 0.000000 0.000000 0.000000 0.000000 0.088652 -0.019520 32.126655 -0.000000 0.000000 0.000000 8.671553 3.984083 -3.056453 0.000000 0.000000 0.000000 0.088652 -0.019520 32.126655 -0.000000 0.000000 0.000000 -0.206343 5.275081 3.888394 0.000000 0.000000 0.000000
10.550201 79.604276 345.056331 -0.142084 0.109317 -32.333696 0.178522 -0.016373 32.333857 -0.000000 0.000000 0.000000 -0.000000 0.000000 0.000000 0.000000 0.000000 0.000000 -0.751566 -0.406889 0.219184 1.649474 1.076768 -0.045832 0.982285 -1.790214 -0.028985 -0.801734 3.471669 1.293158 0.000000 0.000000 0.000000 0.000000 0.000000 0.000000 -0.153360 -1.101588 -0.146795 -0.146477 2.553403 0.420613 2.101449 1.351028 -0.614691 3.094012 -4.699184 -8.424219 0.000000 0.000000 0.000000 0.000000 0.000000 0.000000 0.178522 -0.016373 32.333857 -0.000000 0.000000 0.000000 16.815092 8.773281 -6.313493 0.000000 0.000000 0.000000 0.178522 -0.016373 32.333857 -0.000000 0.000000 0.000000 -0.525237 9.226654 6.824449 0.000000 0.000000 0.000000
10.606267 79.619196 345.038727 -0.232154 0.136911 -32.535757 0.269353 0.009436 32.536012 -0.000000 0.000000 0.000000 -0.000000 0.000000 0.000000 0.000000 0.000000 0.000000 -0.917193 -0.521874 0.268927 1.943078 1.344625 -0.048054 1.404706 -2.193937 0.030495 -0.994336 4.361810 1.554312 0.000000 0.000000 0.000000 0.000000 0.000000 0.000000 -0.238633 -1.522936 -0.204893 -0.206754 3.473184 0.587048 2.922693 1.689428 -0.890506 3.468706 -6.095617 -10.102888 0.000000 0.000000 0.000000 0.000000 0.000000 0.000000 0.269353 0.009436 32.536012 -0.000000 0.000000 0.000000 23.697107 14.087481 -9.505201 0.000000 0.000000 0.000000 0.269353 0.009436 32.536012 -0.000000 0.000000 0.000000 -0.764212 11.910205 8.818405 0.000000 0.000000 0.000000
10.655129 79.631636 345.013944 -0.334896 0.146448 -32.732952 0.360902 0.057895 32.733197 -0.000000 0.000000 0.000000 0.941083 0.170926 0.009744 0.000000 0.000000 0.000000 -0.944469 -0.578064 0.280231 1.884162 1.435135 -0.030907 1.736447 -2.244382 0.120162 -0.997303 4.652973 1.567635 0.000000 0.000000 0.000000 0.000000 0.000000 0.000000 -0.329253 -1.857725 -0.252582 -0.258367 4.170029 0.725172 3.647475 1.880070 -1.160462 3.327104 -6.953909 -10.684940 0.000000 0.000000 0.000000 0.000000 0.000000 0.000000 0.360902 0.057895 32.733197 -0.000000 0.000000 0.000000 28.890726 19.675824 -12.329336 0.000000 0.000000 0.000000 0.360902 0.057895 32.733197 -0.000000 0.000000 0.000000 -0.801788 13.422398 9.896038 0.000000 0.000000 0.000000
10.696788 79.641596 344.981983 -0.450291 0.137927 -32.925480 0.452934 0.128983 32.925513 -0.000000 0.000000 0.000000 1.036337 0.278698 -0.005015 0.000000 0.000000 0.000000 -0.833844 -0.575641 0.253453 1.473137 1.348666 0.006085 1.971113 -1.944069 0.231684 -0.805010 4.348169 1.344050 0.000000 0.000000 0.000000 0.000000 0.000000 0.000000 -0.424987 -2.105879 -0.289685 -0.301595 4.651279 0.835302 4.304635 1.943725 -1.436869 2.698414 -7.316080 -10.279891 0.000000 0.000000 0.000000 0.000000 0.000000 0.000000 0.452934 0.128983 32.925513 -0.000000 0.000000 0.000000 32.269264 25.342775 -14.526195 0.000000 0.000000 0.000000 0.452934 0.128983 32.925513 -0.000000 0.000000 0.000000 -0.575517 13.835583 10.082527 0.000000 0.000000 0.000000
10.727939 79.641961 344.941604 -0.600975 0.121386 -33.105298 0.569717 0.226559 33.104808 -0.000000 0.000000 0.000000 1.525302 0.384778 -0.004648 0.000000 0.000000 0.000000 -0.000000 0.000000 0.000000 -0.385003 0.638395 0.366111 2.623122 -1.449126 0.213505 -0.589454 3.069018 0.658184 0.000000 0.000000 0.000000 0.000000 0.000000 0.000000 -0.438155 -2.388362 -0.327465 -0.531688 5.261699 0.998292 3.984836 2.660738 -0.970466 4.334918 -7.834110 -12.074130 0.000000 0.000000 0.000000 0.000000 0.000000 0.000000 0.569717 0.226559 33.104808 -0.000000 0.000000 0.000000 34.767872 36.251089 -16.900125 0.000000 0.000000 0.000000 0.569717 0.226559 33.104808 -0.000000 0.000000 0.000000 -0.226067 12.160710 8.761715 0.000000 0.000000 0.000000
10.770679 79.653989 344.885184 -0.703982 0.089939 -32.970348 0.639556 0.307654 32.969183 -0.000000 0.000000 0.000000 2.031602 0.162389 0.055005 0.000000 0.000000 0.000000 -0.000000 0.000000 0.000000 -1.223945 0.559840 0.459173 3.155390 -0.458968 0.621140 0.082400 1.969361 -0.069776 0.000000 0.000000 0.000000 0.000000 0.000000 0.000000 -0.347964 -2.001833 -0.272292 -1.062201 4.807313 1.081779 3.494398 1.694641 -0.778303 5.072561 -3.635002 -10.334067 0.000000 0.000000 0.000000 0.000000 0.000000 0.000000 1.642769 -0.694031 33.118170 -0.743761 2.435330 -0.364353 28.685269 42.973371 -12.547984 0.000000 0.000000 0.000000 0.639556 0.307654 32.969183 -0.560454 -0.633753 -0.058581 0.912638 10.418450 6.910627 0.000000 0.000000 0.000000
10.793017 79.669412 344.832573 -0.812246 0.022808 -33.062669 -0.024410 0.041923 33.035165 0.809867 -0.070864 0.028520 1.651056 0.170488 0.038264 0.000000 0.000000 0.000000 -0.000000 0.000000 0.000000 -1.561035 0.669062 0.566192 1.962748 0.273057 0.361396 2.488229 1.418917 0.096180 0.000000 0.000000 0.000000 0.000000 0.000000 0.000000 -0.643511 -1.904447 -0.273625 -0.586544 5.523400 1.122907 10.422599 10.947589 -2.849888 -4.502189 -13.744161 -4.759532 0.000000 0.000000 0.000000 0.000000 0.000000 0.000000 1.557018 -0.506381 33.185699 -0.531531 1.996308 -0.282226 24.676876 45.365995 -10.128197 0.000000 0.000000 0.000000 0.693178 0.424002 33.060266 -0.689826 -0.785940 -0.073131 0.736636 6.474246 4.154835 0.000000 0.000000 0.000000
10.869072 79.721718 344.874210 -0.812953 -0.283029 -33.060049 -0.144488 -0.107981 33.025260 0.093480 -0.144643 -0.036822 0.899038 0.440481 0.064997 0.000000 0.000000 0.000000 0.464316 -0.769987 0.282505 0.440770 1.208287 -0.223406 0.751756 2.336710 2.089510 1.791963 -0.748691 -1.507639 0.000000 0.000000 0.000000 0.000000 0.000000 0.000000 -0.348387 -1.681117 -0.257783 1.238686 2.126793 0.286279 21.594599 -4.527169 -12.736018 -21.850314 3.015441 13.574365 0.000000 0.000000 0.000000 0.000000 0.000000 0.000000 0.526976 0.680663 33.054911 -0.000000 0.000000 0.000000 23.356809 44.575649 -9.745925 0.000000 0.000000 0.000000 0.526976 0.680663 33.054911 -0.978997 -0.932796 -0.101418 0.977475 0.934391 0.085478 0.000000 0.000000 0.000000
10.802441 79.708255 344.792524 -1.125180 -0.391001 -34.963079 -0.238240 -0.415758 34.906507 -0.098385 -0.044152 -0.075652 -0.863882 2.289698 -0.190574 0.000000 0.000000 0.000000 0.798983 -1.157400 0.491437 1.310678 0.961672 -0.864953 -0.586562 3.436728 2.356297 2.547700 -2.807411 -2.486390 0.000000 0.000000 0.000000 0.000000 0.000000 0.000000 -0.195498 -2.111506 -0.314868 3.339029 2.295934 -0.172038 12.450412 -8.194396 -9.078497 -16.350761 1.618338 12.607068 0.000000 0.000000 0.000000 0.000000 0.000000 0.000000 -0.160259 0.711389 34.834401 2.303070 -2.026581 0.548729 11.811391 41.015226 -3.623130 0.000000 0.000000 0.000000 1.115075 1.942729 35.138764 -2.168745 -1.790123 -0.347317 4.242030 5.694934 2.275997 0.000000 0.000000 0.000000
10.633322 79.580463 344.665742 -1.676089 -0.401166 -37.116842 -0.248512 -0.778277 37.027454 -0.340584 0.134932 -0.123843 -2.528064 5.708426 -0.540172 0.000000 0.000000 0.000000 2.128092 -1.403725 0.522758 2.507309 -2.362443 -2.787666 -4.017500 6.789821 3.666341 2.981659 -5.425348 -3.313307 0.000000 0.000000 0.000000 0.000000 0.000000 0.000000 0.664862 -5.271619 -0.721443 2.824957 9.002006 0.749133 4.918400 -8.181925 -4.369270 -5.583959 2.473164 3.026147 0.000000 0.000000 0.000000 0.000000 0.000000 0.000000 -1.291238 1.561446 36.804847 4.617435 -5.487564 1.425486 4.481251 36.795916 -0.669125 0.000000 0.000000 0.000000 2.063343 3.063722 37.474222 -3.428196 -2.252977 -0.619506 4.489905 5.138824 1.767367 0.000000 0.000000 0.000000
